<mxfile host="app.diagrams.net" modified="2024-01-17T16:21:47.875Z" agent="Mozilla/5.0 (Windows NT 10.0; Win64; x64) AppleWebKit/537.36 (KHTML, like Gecko) Chrome/120.0.0.0 Safari/537.36" etag="Hr3ObKg2FVQuRgpntBHw" version="22.1.21" type="github">
  <diagram name="Page-1" id="d_FN3REUGLZMhBFf9ilf">
    <mxGraphModel dx="1956" dy="1160" grid="1" gridSize="10" guides="1" tooltips="1" connect="1" arrows="1" fold="1" page="1" pageScale="1" pageWidth="850" pageHeight="1100" math="0" shadow="0">
      <root>
        <mxCell id="0" />
        <mxCell id="1" parent="0" />
        <mxCell id="zfkS-f1C4c12fDKRqiP9-8" value="" style="rounded=0;whiteSpace=wrap;html=1;" vertex="1" parent="1">
          <mxGeometry x="105" y="40" width="120" height="60" as="geometry" />
        </mxCell>
        <mxCell id="zfkS-f1C4c12fDKRqiP9-9" value="" style="rounded=0;whiteSpace=wrap;html=1;" vertex="1" parent="1">
          <mxGeometry x="285" y="40" width="120" height="60" as="geometry" />
        </mxCell>
        <mxCell id="zfkS-f1C4c12fDKRqiP9-10" value="" style="rounded=0;whiteSpace=wrap;html=1;" vertex="1" parent="1">
          <mxGeometry x="455" y="40" width="120" height="60" as="geometry" />
        </mxCell>
        <mxCell id="zfkS-f1C4c12fDKRqiP9-11" value="" style="rounded=0;whiteSpace=wrap;html=1;" vertex="1" parent="1">
          <mxGeometry x="625" y="40" width="120" height="60" as="geometry" />
        </mxCell>
        <mxCell id="zfkS-f1C4c12fDKRqiP9-12" value="" style="rounded=0;whiteSpace=wrap;html=1;" vertex="1" parent="1">
          <mxGeometry x="105" y="140" width="120" height="60" as="geometry" />
        </mxCell>
        <mxCell id="zfkS-f1C4c12fDKRqiP9-13" value="" style="rounded=0;whiteSpace=wrap;html=1;" vertex="1" parent="1">
          <mxGeometry x="285" y="140" width="120" height="60" as="geometry" />
        </mxCell>
        <mxCell id="zfkS-f1C4c12fDKRqiP9-14" value="" style="rounded=0;whiteSpace=wrap;html=1;" vertex="1" parent="1">
          <mxGeometry x="455" y="140" width="120" height="60" as="geometry" />
        </mxCell>
        <mxCell id="zfkS-f1C4c12fDKRqiP9-15" value="" style="rounded=0;whiteSpace=wrap;html=1;" vertex="1" parent="1">
          <mxGeometry x="625" y="140" width="120" height="60" as="geometry" />
        </mxCell>
      </root>
    </mxGraphModel>
  </diagram>
</mxfile>
